<svg xmlns="http://www.w3.org/2000/svg" viewBox="0 0 61.5 61.5"><defs><style>.cls-1{fill:#fcfdfb;}.cls-2{fill:#fbe707;}.cls-3{fill:#fae611;}.cls-4{fill:#f9e516;}</style></defs><g id="Capa_2" data-name="Capa 2"><g id="Capa_1-2" data-name="Capa 1"><path class="cls-1" d="M61.44,61.5H.06C.06,41.67.1,21.85,0,2,0,.13.54,0,2.14,0Q30.76.09,59.37,0C61,0,61.51.16,61.5,2,61.4,21.85,61.44,41.68,61.44,61.5Z"/><path class="cls-2" d="M3.85,31.19c0-6.05-.06-12.09,0-18.13C3.94,8.63,6.6,6,11,5.9c7.39-.1,14.78-.05,22.16-.11,2,0,3.28.32,3.32,2.78s-1.4,2.65-3.3,2.64q-10.17-.06-20.32,0c-3.29,0-3.89.61-3.91,3.9C9,26,9,36.85,8.94,47.7c0,2.48.85,3.51,3.41,3.64,10.46.53,20.91.22,31.36,0,2.74-.05,3.66-1.14,3.63-3.8-.1-7,0-14.06,0-21.09,0-1.9-.26-3.82,2.66-3.69s2.6,2,2.6,3.92c0,7.39,0,14.79,0,22.19,0,4.56-2.24,7.34-6.71,7.61a294.61,294.61,0,0,1-36.15,0C5.92,56.21,4,53.83,3.87,49.68c-.11-3.08-.07-6.16-.08-9.25s0-6.16,0-9.24Z"/><path class="cls-3" d="M15.67,30.64c1.16.18,1.73,1.05,2.43,1.72,3.64,3.46,3.63,3.46,7.22-.16Q31.44,26,37.58,19.88c1.11-1.11,2.16-2.57,3.91-.73,1.6,1.67,1.57,3.21,0,4.81q-4.3,4.3-8.6,8.62c-3,3-6,5.88-8.87,8.91-1.47,1.55-2.68,1.91-4.27.15-2-2.19-4.11-4.25-6.22-6.32a1.73,1.73,0,0,1-.17-2.6C14,31.85,14.49,30.8,15.67,30.64Z"/><path class="cls-4" d="M52.61,11.8c0,.86,0,1.72,0,2.59.07,1.5-.14,2.74-2.09,2.66-1.57-.06-3.37.36-3.32-2.21s-1-4.14-4-3.77c-1.79.22-1.78-1.25-1.78-2.53s.07-2.6,1.79-2.65c2.46-.08,4.92-.11,7.38,0a2.05,2.05,0,0,1,2,2.25c.06,1.23,0,2.47,0,3.7Z"/></g></g></svg>