<?xml version="1.0" encoding="utf-8"?>
<!-- Generator: Adobe Illustrator 24.1.2, SVG Export Plug-In . SVG Version: 6.00 Build 0)  -->
<svg version="1.1" id="Layer_1" xmlns="http://www.w3.org/2000/svg" xmlns:xlink="http://www.w3.org/1999/xlink" x="0px" y="0px"
	 viewBox="0 0 210 62.3" style="enable-background:new 0 0 210 62.3;" xml:space="preserve">
<style type="text/css">
	.st0{fill:#FFDD00;}
	.st1{fill:#1B2D54;}
</style>
<path class="st0" d="M45.5,10.3V54H17.9C10.2,54,4,47.4,4,39.4c0,0,0,0,0,0V10.3H45.5z"/>
<polygon class="st1" points="38.6,32.1 38.6,17.5 24.7,17.5 24.7,24.1 32.3,24.1 32.3,32.1 "/>
<path class="st1" d="M67.4,28.6c1.6,0.1,3.1-0.4,4.3-1.5c1.1-1,1.7-2.4,1.7-3.9c0-1.7-0.8-3.3-2.2-4.2c1.1-0.9,1.8-2.2,1.8-3.7
	c0-3.3-2.4-5.1-6-5.1h-7.8v18.3H67.4z M62.9,20.9h3.8c2,0,3,0.7,3,2c0,1.5-1.1,2.1-3.1,2.1h-3.7L62.9,20.9z M66.3,13.9
	c2.2,0,3,0.5,3,1.9s-0.9,1.9-2.8,1.9h-3.6v-3.8L66.3,13.9z"/>
<path class="st1" d="M81.3,21.6l2.2-6l2.2,6H81.3z M85.7,11.6c-0.3-0.8-1-1.3-1.7-1.3h-2.2l-6.8,18.3h3.8l1.4-3.6h6.7l1.4,3.6H92
	L85.7,11.6z"/>
<path class="st1" d="M109.9,28.6V10.3h-3.7v12.4l-6.5-11.5c-0.3-0.6-0.9-1-1.6-1h-3.4v18.4h3.7V16.3l6.5,11.4c0.3,0.6,0.9,1,1.6,1
	L109.9,28.6z"/>
<path class="st1" d="M127.1,22.7c-1.1,1.6-2.9,2.6-4.7,2.6c-1.4,0-2.8-0.5-3.8-1.6c-1.1-1.1-1.6-2.7-1.5-4.3
	c-0.1-1.6,0.5-3.1,1.5-4.2c1-1,2.2-1.6,3.6-1.6c1.3,0,2.5,0.4,3.5,1.3c0.7,0.6,1.8,0.5,2.4-0.2l1.2-1.2c-1.7-2.2-4.2-3.5-6.9-3.4
	c-2.4-0.1-4.8,0.9-6.5,2.6c-1.8,1.8-2.7,4.3-2.6,6.9c-0.1,2.6,0.8,5,2.6,6.8c1.8,1.7,4.2,2.7,6.6,2.6c2.7,0.1,5.4-1.2,7.1-3.5
	L127.1,22.7z"/>
<path class="st1" d="M144.2,23.6c-0.9,1.1-2.3,1.8-3.8,1.7c-1.4,0.1-2.8-0.6-3.8-1.7c-1-1.1-1.5-2.6-1.4-4.1c0-1.5,0.5-3,1.4-4.1
	c1-1.1,2.4-1.7,3.8-1.7c1.4,0,2.8,0.6,3.7,1.7c1,1.1,1.5,2.6,1.5,4.1C145.7,21,145.2,22.4,144.2,23.6 M146.8,12.7
	c-1.7-1.8-4-2.8-6.4-2.7c-4.8-0.1-8.8,4-8.9,9.1c0,0.1,0,0.2,0,0.4c-0.1,5.1,3.7,9.3,8.5,9.5c0.1,0,0.3,0,0.4,0
	c2.4,0.1,4.7-0.9,6.4-2.7c1.7-1.8,2.7-4.2,2.6-6.8C149.5,16.9,148.5,14.5,146.8,12.7"/>
<path class="st1" d="M192.7,46.8l2.2-6l2.2,6H192.7z M197,36.8c-0.3-0.8-1-1.3-1.7-1.3H193l-6.8,18.3h3.8l1.4-3.6h6.7l1.5,3.6h3.8
	L197,36.8z"/>
<path class="st1" d="M97.1,47.9c-1.1,1.6-2.9,2.6-4.7,2.6c-1.4,0-2.8-0.5-3.8-1.6c-1.1-1.1-1.6-2.7-1.5-4.3
	c-0.1-1.6,0.5-3.1,1.5-4.2c1-1,2.2-1.6,3.6-1.6c1.3,0,2.5,0.4,3.5,1.2c0.8,0.6,1.8,0.5,2.5-0.2l1.1-1.2c-1.7-2.2-4.2-3.5-6.9-3.4
	c-2.4-0.1-4.8,0.9-6.5,2.6c-1.8,1.8-2.7,4.3-2.6,6.9c-0.1,2.6,0.9,5,2.6,6.8c1.8,1.7,4.2,2.7,6.6,2.6c2.7,0.1,5.4-1.2,7.1-3.5
	L97.1,47.9z"/>
<rect x="76.2" y="35.5" class="st1" width="3.7" height="18.3"/>
<polyline class="st1" points="125.8,35.5 122.2,35.5 122.2,53.8 125.8,53.8 125.8,35.5 125.8,35.5 "/>
<path class="st1" d="M117.6,53.8V35.5h-1.8c-1,0-1.9,0.9-1.9,2v5.2h-7.3v-7.2h-3.7v18.3h3.7v-7.6h7.3v7.6H117.6z"/>
<path class="st1" d="M65.6,44.4h-2.7v-5.4h2.7c2.6,0,3.8,0.8,3.8,2.7S68.1,44.4,65.6,44.4 M71.2,37.2c-1.4-1.2-3.2-1.8-4.9-1.7h-7.1
	v18.3h3.7V48h3.4c1.8,0.1,3.5-0.5,4.9-1.8c1.3-1.2,2-2.9,1.9-4.6C73.1,39.9,72.4,38.2,71.2,37.2"/>
<path class="st1" d="M145.5,53.8V35.5h-3.7v12.4l-6.5-11.5c-0.3-0.6-0.9-1-1.6-1h-3.4v18.4h3.7V41.5l6.5,11.4c0.3,0.6,0.9,1,1.6,1
	L145.5,53.8z"/>
<path class="st1" d="M162.7,47.9c-1.1,1.6-2.9,2.6-4.7,2.6c-1.4,0-2.8-0.5-3.8-1.6c-1.1-1.1-1.6-2.7-1.5-4.3
	c-0.1-1.6,0.5-3.1,1.5-4.2c1-1,2.3-1.6,3.6-1.6c1.3,0,2.5,0.4,3.5,1.3c0.7,0.6,1.8,0.5,2.4-0.2l1.1-1.2c-1.7-2.3-4.2-3.5-6.9-3.5
	c-2.4-0.1-4.8,0.9-6.5,2.6c-1.8,1.8-2.7,4.3-2.6,6.9c-0.1,2.6,0.9,5,2.6,6.8c1.8,1.7,4.2,2.7,6.6,2.6c2.7,0.1,5.4-1.2,7.1-3.5
	L162.7,47.9z"/>
<path class="st1" d="M183.3,53.8V35.5h-1.8c-1,0-1.9,0.9-1.9,2v5.2h-7.3v-7.2h-3.7v18.3h3.7v-7.6h7.4v7.6H183.3z"/>
</svg>
